<mxfile host="app.diagrams.net" modified="2020-12-13T12:15:43.120Z" agent="5.0 (Windows NT 10.0; Win64; x64) AppleWebKit/537.36 (KHTML, like Gecko) Chrome/86.0.4240.198 Safari/537.36 OPR/72.0.3815.400" etag="gIgcR-I59X-24GGaAwHk" version="14.0.1" type="github">
  <diagram id="dejC8xX66NXGGqEdCbtm" name="Page-1">
    <mxGraphModel dx="2723" dy="3542" grid="1" gridSize="10" guides="1" tooltips="1" connect="1" arrows="1" fold="1" page="1" pageScale="1" pageWidth="850" pageHeight="1100" background="none" math="0" shadow="0">
      <root>
        <mxCell id="0" />
        <mxCell id="1" parent="0" />
        <mxCell id="jC_Wdxe36F_O-iLtIrg6-4" value="&lt;p style=&quot;margin: 0px ; margin-top: 4px ; text-align: center&quot;&gt;&lt;i&gt;&amp;lt;&amp;lt;Interface&amp;gt;&amp;gt;&lt;/i&gt;&lt;br&gt;&lt;b&gt;Controller&lt;/b&gt;&lt;/p&gt;&lt;hr size=&quot;1&quot;&gt;&lt;p style=&quot;margin: 0px ; margin-left: 4px&quot;&gt;+ initData&lt;span&gt;(User user): void&lt;/span&gt;&lt;/p&gt;" style="verticalAlign=top;align=left;overflow=fill;fontSize=12;fontFamily=Helvetica;html=1;" parent="1" vertex="1">
          <mxGeometry x="430" y="-1220" width="190" height="70" as="geometry" />
        </mxCell>
        <mxCell id="jC_Wdxe36F_O-iLtIrg6-29" value="&lt;p style=&quot;margin: 0px ; margin-top: 4px ; text-align: center&quot;&gt;&lt;b&gt;Loader&lt;/b&gt;&lt;/p&gt;&lt;hr size=&quot;1&quot;&gt;&lt;p style=&quot;margin: 0px ; margin-left: 4px&quot;&gt;- rootPane: AnchorPane&lt;/p&gt;&lt;p style=&quot;margin: 0px ; margin-left: 4px&quot;&gt;- currentUser: User&lt;/p&gt;&lt;hr size=&quot;1&quot;&gt;&lt;p style=&quot;margin: 0px ; margin-left: 4px&quot;&gt;+ Loader(User currentUser, AnchorPane rootPane)&lt;/p&gt;&lt;p style=&quot;margin: 0px ; margin-left: 4px&quot;&gt;+ load(String filename): void&lt;/p&gt;" style="verticalAlign=top;align=left;overflow=fill;fontSize=12;fontFamily=Helvetica;html=1;" parent="1" vertex="1">
          <mxGeometry x="690" y="-1235" width="280" height="100" as="geometry" />
        </mxCell>
        <mxCell id="BZukZKPMYofZ3oWbsd-u-14" value="Use" style="endArrow=open;endSize=12;dashed=1;html=1;entryX=1;entryY=0.5;entryDx=0;entryDy=0;exitX=0;exitY=0.5;exitDx=0;exitDy=0;" parent="1" source="jC_Wdxe36F_O-iLtIrg6-29" target="jC_Wdxe36F_O-iLtIrg6-4" edge="1">
          <mxGeometry width="160" relative="1" as="geometry">
            <mxPoint x="740" y="-480.42" as="sourcePoint" />
            <mxPoint x="900" y="-480.42" as="targetPoint" />
          </mxGeometry>
        </mxCell>
        <mxCell id="wKeTZpyMlNqquont4m5I-223" value="" style="group" parent="1" vertex="1" connectable="0">
          <mxGeometry x="2080" y="-838" width="250" height="312" as="geometry" />
        </mxCell>
        <mxCell id="wKeTZpyMlNqquont4m5I-213" value="&lt;p style=&quot;margin: 0px ; margin-top: 4px ; text-align: center&quot;&gt;&lt;b&gt;ControllerHomepageAdmin&lt;/b&gt;&lt;/p&gt;&lt;hr size=&quot;1&quot;&gt;&lt;p style=&quot;margin: 0px 0px 0px 4px&quot;&gt;- rootPane: AnchorPane&lt;/p&gt;&lt;p style=&quot;margin: 0px 0px 0px 4px&quot;&gt;- treeView: TreeView&amp;lt;String&amp;gt;&lt;/p&gt;&lt;p style=&quot;margin: 0px 0px 0px 4px&quot;&gt;- name: Text&lt;/p&gt;&lt;p style=&quot;margin: 0px 0px 0px 4px&quot;&gt;- currentUser: User&lt;/p&gt;&lt;hr size=&quot;1&quot;&gt;&lt;p style=&quot;margin: 0px ; margin-left: 4px&quot;&gt;+ initData(User user): void&lt;/p&gt;&lt;p style=&quot;margin: 0px ; margin-left: 4px&quot;&gt;+ displayEmployees(ActionEvent event): void&lt;/p&gt;&lt;p style=&quot;margin: 0px ; margin-left: 4px&quot;&gt;+ displayOrders(ActionEvent event): void&lt;/p&gt;&lt;p style=&quot;margin: 0px ; margin-left: 4px&quot;&gt;+ displayUsers(ActionEvent event): void&lt;/p&gt;&lt;p style=&quot;margin: 0px ; margin-left: 4px&quot;&gt;+ displayWines(ActionEvent event): void&lt;/p&gt;&lt;p style=&quot;margin: 0px ; margin-left: 4px&quot;&gt;+ loadEmployee(ActionEvent event): void&lt;/p&gt;&lt;p style=&quot;margin: 0px ; margin-left: 4px&quot;&gt;+ loadUser(ActionEvent event): void&lt;/p&gt;&lt;p style=&quot;margin: 0px ; margin-left: 4px&quot;&gt;+ loadAddEmployee(ActionEvent event): void&lt;/p&gt;&lt;p style=&quot;margin: 0px ; margin-left: 4px&quot;&gt;+ logout(ActionEvent event): void&lt;/p&gt;" style="verticalAlign=top;align=left;overflow=fill;fontSize=12;fontFamily=Helvetica;html=1;" parent="wKeTZpyMlNqquont4m5I-223" vertex="1">
          <mxGeometry y="80" width="250" height="232" as="geometry" />
        </mxCell>
        <mxCell id="wKeTZpyMlNqquont4m5I-222" value="" style="group" parent="wKeTZpyMlNqquont4m5I-223" vertex="1" connectable="0">
          <mxGeometry x="90" width="70" height="80" as="geometry" />
        </mxCell>
        <mxCell id="wKeTZpyMlNqquont4m5I-195" value="Controller" style="text;html=1;align=center;verticalAlign=middle;resizable=0;points=[];autosize=1;" parent="wKeTZpyMlNqquont4m5I-222" vertex="1">
          <mxGeometry width="70" height="20" as="geometry" />
        </mxCell>
        <mxCell id="wKeTZpyMlNqquont4m5I-159" value="" style="ellipse;fillColor=#ffffff;strokeColor=#000000;rotation=90;" parent="wKeTZpyMlNqquont4m5I-222" vertex="1">
          <mxGeometry x="20" y="30" width="30" height="30" as="geometry" />
        </mxCell>
        <mxCell id="wKeTZpyMlNqquont4m5I-216" value="" style="endArrow=none;html=1;entryX=0.5;entryY=0;entryDx=0;entryDy=0;" parent="wKeTZpyMlNqquont4m5I-222" edge="1">
          <mxGeometry x="36.70999999999998" y="-50" width="50" height="50" as="geometry">
            <mxPoint x="35.00000000000023" y="50" as="sourcePoint" />
            <mxPoint x="35.00000000000023" y="80" as="targetPoint" />
          </mxGeometry>
        </mxCell>
        <mxCell id="wKeTZpyMlNqquont4m5I-217" value="" style="ellipse;fillColor=#ffffff;strokeColor=#000000;rotation=90;" parent="wKeTZpyMlNqquont4m5I-222" vertex="1">
          <mxGeometry x="20" y="30" width="30" height="30" as="geometry" />
        </mxCell>
        <mxCell id="wKeTZpyMlNqquont4m5I-218" value="" style="endArrow=none;html=1;entryX=0.5;entryY=0;entryDx=0;entryDy=0;" parent="wKeTZpyMlNqquont4m5I-222" edge="1">
          <mxGeometry x="36.70999999999998" y="-50" width="50" height="50" as="geometry">
            <mxPoint x="35.00000000000023" y="50" as="sourcePoint" />
            <mxPoint x="35.00000000000023" y="80" as="targetPoint" />
          </mxGeometry>
        </mxCell>
        <mxCell id="wKeTZpyMlNqquont4m5I-219" value="" style="ellipse;fillColor=#ffffff;strokeColor=#000000;rotation=90;" parent="wKeTZpyMlNqquont4m5I-222" vertex="1">
          <mxGeometry x="20" y="30" width="30" height="30" as="geometry" />
        </mxCell>
        <mxCell id="wKeTZpyMlNqquont4m5I-220" value="" style="endArrow=none;html=1;entryX=0.5;entryY=0;entryDx=0;entryDy=0;" parent="wKeTZpyMlNqquont4m5I-222" edge="1">
          <mxGeometry x="36.70999999999998" y="-50" width="50" height="50" as="geometry">
            <mxPoint x="35.00000000000023" y="50" as="sourcePoint" />
            <mxPoint x="35.00000000000023" y="80" as="targetPoint" />
          </mxGeometry>
        </mxCell>
        <mxCell id="wKeTZpyMlNqquont4m5I-221" value="" style="ellipse;fillColor=#ffffff;strokeColor=#000000;rotation=90;" parent="wKeTZpyMlNqquont4m5I-222" vertex="1">
          <mxGeometry x="20" y="30" width="30" height="30" as="geometry" />
        </mxCell>
        <mxCell id="wKeTZpyMlNqquont4m5I-230" value="" style="group" parent="1" vertex="1" connectable="0">
          <mxGeometry x="1450" y="-1890" width="200" height="272" as="geometry" />
        </mxCell>
        <mxCell id="wKeTZpyMlNqquont4m5I-162" value="" style="group" parent="wKeTZpyMlNqquont4m5I-230" vertex="1" connectable="0">
          <mxGeometry y="30" width="200" height="242" as="geometry" />
        </mxCell>
        <mxCell id="jC_Wdxe36F_O-iLtIrg6-13" value="&lt;p style=&quot;margin: 0px ; margin-top: 4px ; text-align: center&quot;&gt;&lt;b&gt;ControllerAddWine&lt;/b&gt;&lt;/p&gt;&lt;hr size=&quot;1&quot;&gt;&lt;p style=&quot;margin: 0px ; margin-left: 4px&quot;&gt;- rootPane: AnchorPane&lt;/p&gt;&lt;p style=&quot;margin: 0px ; margin-left: 4px&quot;&gt;- name: TextField&lt;/p&gt;&lt;p style=&quot;margin: 0px ; margin-left: 4px&quot;&gt;- year: TextField&lt;/p&gt;&lt;p style=&quot;margin: 0px ; margin-left: 4px&quot;&gt;- producer: TextField&lt;/p&gt;&lt;p style=&quot;margin: 0px ; margin-left: 4px&quot;&gt;- grapes: TextField&lt;/p&gt;&lt;p style=&quot;margin: 0px ; margin-left: 4px&quot;&gt;- notes: TextArea&lt;/p&gt;&lt;p style=&quot;margin: 0px ; margin-left: 4px&quot;&gt;- currentUser: User&lt;/p&gt;&lt;hr size=&quot;1&quot;&gt;&lt;p style=&quot;margin: 0px ; margin-left: 4px&quot;&gt;+ initData(User user): void&lt;/p&gt;&lt;p style=&quot;margin: 0px ; margin-left: 4px&quot;&gt;+ addWine(ActionEvent event): void&lt;/p&gt;&lt;p style=&quot;margin: 0px ; margin-left: 4px&quot;&gt;+ back(ActionEvent event): void&lt;/p&gt;" style="verticalAlign=top;align=left;overflow=fill;fontSize=12;fontFamily=Helvetica;html=1;" parent="wKeTZpyMlNqquont4m5I-162" vertex="1">
          <mxGeometry y="50" width="200" height="192" as="geometry" />
        </mxCell>
        <mxCell id="wKeTZpyMlNqquont4m5I-224" value="" style="group" parent="wKeTZpyMlNqquont4m5I-162" vertex="1" connectable="0">
          <mxGeometry x="85" y="-1.7763568394002505e-15" width="50" height="50" as="geometry" />
        </mxCell>
        <mxCell id="wKeTZpyMlNqquont4m5I-160" value="" style="endArrow=none;html=1;entryX=0.5;entryY=0;entryDx=0;entryDy=0;" parent="wKeTZpyMlNqquont4m5I-224" edge="1">
          <mxGeometry x="1.7099999999999795" y="-70" width="50" height="50" as="geometry">
            <mxPoint x="15" y="30" as="sourcePoint" />
            <mxPoint x="15" y="50" as="targetPoint" />
          </mxGeometry>
        </mxCell>
        <mxCell id="wKeTZpyMlNqquont4m5I-161" value="" style="ellipse;fillColor=#ffffff;strokeColor=#000000;rotation=90;" parent="wKeTZpyMlNqquont4m5I-224" vertex="1">
          <mxGeometry y="1.7763568394002505e-15" width="30" height="30" as="geometry" />
        </mxCell>
        <mxCell id="wKeTZpyMlNqquont4m5I-194" value="Controller" style="text;html=1;align=center;verticalAlign=middle;resizable=0;points=[];autosize=1;" parent="wKeTZpyMlNqquont4m5I-230" vertex="1">
          <mxGeometry x="65" width="70" height="20" as="geometry" />
        </mxCell>
        <mxCell id="wKeTZpyMlNqquont4m5I-243" value="" style="group" parent="1" vertex="1" connectable="0">
          <mxGeometry x="1370" y="-810" width="230" height="272" as="geometry" />
        </mxCell>
        <mxCell id="wKeTZpyMlNqquont4m5I-164" value="" style="group" parent="wKeTZpyMlNqquont4m5I-243" vertex="1" connectable="0">
          <mxGeometry y="30" width="230" height="242" as="geometry" />
        </mxCell>
        <mxCell id="jC_Wdxe36F_O-iLtIrg6-10" value="&lt;p style=&quot;margin: 0px ; margin-top: 4px ; text-align: center&quot;&gt;&lt;b&gt;ControllerAddEmployee&lt;/b&gt;&lt;/p&gt;&lt;hr size=&quot;1&quot;&gt;&lt;p style=&quot;margin: 0px ; margin-left: 4px&quot;&gt;- rootPane: AnchorPane&lt;/p&gt;&lt;p style=&quot;margin: 0px ; margin-left: 4px&quot;&gt;- name: TextField&lt;/p&gt;&lt;p style=&quot;margin: 0px ; margin-left: 4px&quot;&gt;- surname: TextField&lt;br&gt;&lt;/p&gt;&lt;p style=&quot;margin: 0px ; margin-left: 4px&quot;&gt;- email: TextField&lt;br&gt;&lt;/p&gt;&lt;p style=&quot;margin: 0px ; margin-left: 4px&quot;&gt;- password: PasswordField&lt;br&gt;&lt;/p&gt;&lt;p style=&quot;margin: 0px ; margin-left: 4px&quot;&gt;- currentUser: User&lt;/p&gt;&lt;hr size=&quot;1&quot;&gt;&lt;p style=&quot;margin: 0px ; margin-left: 4px&quot;&gt;+ initData(User user): void&lt;/p&gt;&lt;p style=&quot;margin: 0px ; margin-left: 4px&quot;&gt;+ isMail(String mail): Boolean&lt;/p&gt;&lt;p style=&quot;margin: 0px ; margin-left: 4px&quot;&gt;+ addEmployee(ActionEvent event): void&lt;/p&gt;&lt;p style=&quot;margin: 0px ; margin-left: 4px&quot;&gt;+ back(ActionEvent event): void&lt;/p&gt;&lt;p style=&quot;margin: 0px ; margin-left: 4px&quot;&gt;&lt;br&gt;&lt;/p&gt;&lt;p style=&quot;margin: 0px ; margin-left: 4px&quot;&gt;&lt;br&gt;&lt;/p&gt;" style="verticalAlign=top;align=left;overflow=fill;fontSize=12;fontFamily=Helvetica;html=1;" parent="wKeTZpyMlNqquont4m5I-164" vertex="1">
          <mxGeometry y="50" width="230" height="192" as="geometry" />
        </mxCell>
        <mxCell id="wKeTZpyMlNqquont4m5I-242" value="" style="group" parent="wKeTZpyMlNqquont4m5I-164" vertex="1" connectable="0">
          <mxGeometry x="100" y="-1.7763568394002505e-15" width="30" height="30" as="geometry" />
        </mxCell>
        <mxCell id="wKeTZpyMlNqquont4m5I-142" value="" style="endArrow=none;html=1;entryX=0.5;entryY=0;entryDx=0;entryDy=0;" parent="wKeTZpyMlNqquont4m5I-242" target="jC_Wdxe36F_O-iLtIrg6-10" edge="1">
          <mxGeometry x="2" y="-67" width="50" height="50" as="geometry">
            <mxPoint x="15" y="23" as="sourcePoint" />
            <mxPoint x="13" y="48" as="targetPoint" />
          </mxGeometry>
        </mxCell>
        <mxCell id="wKeTZpyMlNqquont4m5I-146" value="" style="ellipse;fillColor=#ffffff;strokeColor=#000000;rotation=90;" parent="wKeTZpyMlNqquont4m5I-242" vertex="1">
          <mxGeometry y="1.7763568394002505e-15" width="30" height="30" as="geometry" />
        </mxCell>
        <mxCell id="wKeTZpyMlNqquont4m5I-193" value="Controller" style="text;html=1;align=center;verticalAlign=middle;resizable=0;points=[];autosize=1;" parent="wKeTZpyMlNqquont4m5I-243" vertex="1">
          <mxGeometry x="80" width="70" height="20" as="geometry" />
        </mxCell>
        <mxCell id="wKeTZpyMlNqquont4m5I-244" value="" style="group" parent="1" vertex="1" connectable="0">
          <mxGeometry x="1820" y="-2060" width="280" height="442" as="geometry" />
        </mxCell>
        <mxCell id="wKeTZpyMlNqquont4m5I-258" value="" style="group" parent="wKeTZpyMlNqquont4m5I-244" vertex="1" connectable="0">
          <mxGeometry x="-80" y="30" width="280" height="412" as="geometry" />
        </mxCell>
        <mxCell id="wKeTZpyMlNqquont4m5I-249" value="&lt;p style=&quot;margin: 0px ; margin-top: 4px ; text-align: center&quot;&gt;&lt;b&gt;ControllerHomepageUser&lt;/b&gt;&lt;/p&gt;&lt;hr size=&quot;1&quot;&gt;&lt;p style=&quot;margin: 0px ; margin-left: 4px&quot;&gt;- rootPane: AnchorPane&lt;/p&gt;&lt;p style=&quot;margin: 0px ; margin-left: 4px&quot;&gt;- searchboxName: TextField&lt;/p&gt;&lt;p style=&quot;margin: 0px ; margin-left: 4px&quot;&gt;- searchboxName: TextField&lt;/p&gt;&lt;p style=&quot;margin: 0px ; margin-left: 4px&quot;&gt;- treeView: TreeView&amp;lt;String&amp;gt;&lt;/p&gt;&lt;p style=&quot;margin: 0px ; margin-left: 4px&quot;&gt;- tableView: TableView&amp;lt;Wine&amp;gt;&lt;/p&gt;&lt;p style=&quot;margin: 0px ; margin-left: 4px&quot;&gt;- nameColumn: TableColumn&amp;lt;Wine, String&amp;gt;&lt;/p&gt;&lt;p style=&quot;margin: 0px ; margin-left: 4px&quot;&gt;- yearColumn: TableColumn&amp;lt;Wine, Integer&amp;gt;&lt;/p&gt;&lt;p style=&quot;margin: 0px ; margin-left: 4px&quot;&gt;- producerColumn: TableColumn&amp;lt;Wine, String&amp;gt;&lt;/p&gt;&lt;p style=&quot;margin: 0px ; margin-left: 4px&quot;&gt;- grapesColumn: TableColumn&amp;lt;Wine, String&amp;gt;&lt;/p&gt;&lt;p style=&quot;margin: 0px ; margin-left: 4px&quot;&gt;- notesColumn: TableColumn&amp;lt;Wine, String&amp;gt;&lt;/p&gt;&lt;p style=&quot;margin: 0px ; margin-left: 4px&quot;&gt;- quantity: TextField&lt;/p&gt;&lt;p style=&quot;margin: 0px ; margin-left: 4px&quot;&gt;- currentUser: User&lt;/p&gt;&lt;hr size=&quot;1&quot;&gt;&lt;p style=&quot;margin: 0px ; margin-left: 4px&quot;&gt;+ initData(User user): void&lt;/p&gt;&lt;p style=&quot;margin: 0px ; margin-left: 4px&quot;&gt;+ addtoTable(ArrayList&amp;lt;Wine&amp;gt; wines): void&lt;/p&gt;&lt;p style=&quot;margin: 0px ; margin-left: 4px&quot;&gt;+ displayNotifications(ArrayList&amp;lt;Wine&amp;gt; wines): void&lt;/p&gt;&lt;p style=&quot;margin: 0px ; margin-left: 4px&quot;&gt;+ addToCart(ActionEvent event): void&lt;/p&gt;&lt;p style=&quot;margin: 0px ; margin-left: 4px&quot;&gt;+ search(ActionEvent event): void&lt;/p&gt;&lt;p style=&quot;margin: 0px ; margin-left: 4px&quot;&gt;+ showCart(ActionEvent event): void&lt;/p&gt;&lt;p style=&quot;margin: 0px ; margin-left: 4px&quot;&gt;+ displayOrders(): void&lt;/p&gt;&lt;p style=&quot;margin: 0px ; margin-left: 4px&quot;&gt;+ logout(ActionEvent event): void&lt;/p&gt;" style="verticalAlign=top;align=left;overflow=fill;fontSize=12;fontFamily=Helvetica;html=1;" parent="wKeTZpyMlNqquont4m5I-258" vertex="1">
          <mxGeometry y="80" width="280" height="332" as="geometry" />
        </mxCell>
        <mxCell id="wKeTZpyMlNqquont4m5I-250" value="" style="endArrow=none;html=1;entryX=0.5;entryY=0;entryDx=0;entryDy=0;" parent="wKeTZpyMlNqquont4m5I-258" edge="1">
          <mxGeometry x="117" y="-57" width="50" height="50" as="geometry">
            <mxPoint x="140" y="50" as="sourcePoint" />
            <mxPoint x="140" y="80" as="targetPoint" />
          </mxGeometry>
        </mxCell>
        <mxCell id="wKeTZpyMlNqquont4m5I-251" value="" style="ellipse;fillColor=#ffffff;strokeColor=#000000;rotation=90;" parent="wKeTZpyMlNqquont4m5I-258" vertex="1">
          <mxGeometry x="125" y="30" width="30" height="30" as="geometry" />
        </mxCell>
        <mxCell id="wKeTZpyMlNqquont4m5I-256" value="Controller" style="text;html=1;align=center;verticalAlign=middle;resizable=0;points=[];autosize=1;" parent="wKeTZpyMlNqquont4m5I-258" vertex="1">
          <mxGeometry x="105" width="70" height="20" as="geometry" />
        </mxCell>
        <mxCell id="wKeTZpyMlNqquont4m5I-260" value="" style="group" parent="1" vertex="1" connectable="0">
          <mxGeometry x="2330" y="-1080" width="190" height="252" as="geometry" />
        </mxCell>
        <mxCell id="wKeTZpyMlNqquont4m5I-179" value="" style="group" parent="wKeTZpyMlNqquont4m5I-260" vertex="1" connectable="0">
          <mxGeometry y="30" width="190" height="222" as="geometry" />
        </mxCell>
        <mxCell id="jC_Wdxe36F_O-iLtIrg6-20" value="&lt;p style=&quot;margin: 0px ; margin-top: 4px ; text-align: center&quot;&gt;&lt;b&gt;ControllerRegister&lt;/b&gt;&lt;/p&gt;&lt;hr size=&quot;1&quot;&gt;&lt;p style=&quot;margin: 0px ; margin-left: 4px&quot;&gt;- rootPane: AnchorPane&lt;/p&gt;&lt;p style=&quot;margin: 0px 0px 0px 4px&quot;&gt;- name: TextField&lt;/p&gt;&lt;p style=&quot;margin: 0px 0px 0px 4px&quot;&gt;- surname: TextField&lt;br&gt;&lt;/p&gt;&lt;p style=&quot;margin: 0px 0px 0px 4px&quot;&gt;- email: TextField&lt;br&gt;&lt;/p&gt;&lt;p style=&quot;margin: 0px 0px 0px 4px&quot;&gt;- password: PasswordField&lt;/p&gt;&lt;p style=&quot;margin: 0px ; margin-left: 4px&quot;&gt;- currentUser: User&lt;/p&gt;&lt;hr size=&quot;1&quot;&gt;&lt;p style=&quot;margin: 0px ; margin-left: 4px&quot;&gt;+ initData(User user): void&lt;/p&gt;&lt;p style=&quot;margin: 0px ; margin-left: 4px&quot;&gt;+ isMail(String mail): Boolean&lt;/p&gt;&lt;p style=&quot;margin: 0px ; margin-left: 4px&quot;&gt;+ register(ActionEvent event): void&lt;/p&gt;" style="verticalAlign=top;align=left;overflow=fill;fontSize=12;fontFamily=Helvetica;html=1;" parent="wKeTZpyMlNqquont4m5I-179" vertex="1">
          <mxGeometry y="50" width="190" height="172" as="geometry" />
        </mxCell>
        <mxCell id="wKeTZpyMlNqquont4m5I-149" value="" style="endArrow=none;html=1;entryX=0.5;entryY=0;entryDx=0;entryDy=0;" parent="wKeTZpyMlNqquont4m5I-179" target="jC_Wdxe36F_O-iLtIrg6-20" edge="1">
          <mxGeometry x="77" y="-80" width="50" height="50" as="geometry">
            <mxPoint x="95" y="30" as="sourcePoint" />
            <mxPoint x="90" y="37" as="targetPoint" />
          </mxGeometry>
        </mxCell>
        <mxCell id="wKeTZpyMlNqquont4m5I-150" value="" style="ellipse;fillColor=#ffffff;strokeColor=#000000;rotation=90;" parent="wKeTZpyMlNqquont4m5I-179" vertex="1">
          <mxGeometry x="80" width="30" height="30" as="geometry" />
        </mxCell>
        <mxCell id="wKeTZpyMlNqquont4m5I-190" value="Controller" style="text;html=1;align=center;verticalAlign=middle;resizable=0;points=[];autosize=1;" parent="wKeTZpyMlNqquont4m5I-260" vertex="1">
          <mxGeometry x="60" width="70" height="20" as="geometry" />
        </mxCell>
        <mxCell id="wKeTZpyMlNqquont4m5I-261" value="" style="group" parent="1" vertex="1" connectable="0">
          <mxGeometry x="1125" y="-1630" width="220" height="242" as="geometry" />
        </mxCell>
        <mxCell id="wKeTZpyMlNqquont4m5I-180" value="" style="group" parent="wKeTZpyMlNqquont4m5I-261" vertex="1" connectable="0">
          <mxGeometry y="30" width="220" height="212" as="geometry" />
        </mxCell>
        <mxCell id="jC_Wdxe36F_O-iLtIrg6-19" value="&lt;p style=&quot;margin: 0px ; margin-top: 4px ; text-align: center&quot;&gt;&lt;b&gt;ControllerLogin&lt;/b&gt;&lt;/p&gt;&lt;hr size=&quot;1&quot;&gt;&lt;p style=&quot;margin: 0px ; margin-left: 4px&quot;&gt;- rootPane: AnchorPane&lt;/p&gt;&lt;p style=&quot;margin: 0px ; margin-left: 4px&quot;&gt;- email: TextField&lt;/p&gt;&lt;p style=&quot;margin: 0px ; margin-left: 4px&quot;&gt;- password: PasswordField&lt;/p&gt;&lt;p style=&quot;margin: 0px ; margin-left: 4px&quot;&gt;- currentUser: User&lt;/p&gt;&lt;hr size=&quot;1&quot;&gt;&lt;p style=&quot;margin: 0px ; margin-left: 4px&quot;&gt;+ isMail(String mail): Boolean&lt;/p&gt;&lt;p style=&quot;margin: 0px ; margin-left: 4px&quot;&gt;+ loadRegister(ActionEvent event): void&lt;/p&gt;&lt;p style=&quot;margin: 0px ; margin-left: 4px&quot;&gt;+ login(ActionEvent event): void&lt;/p&gt;&lt;p style=&quot;margin: 0px ; margin-left: 4px&quot;&gt;+ guestLogin(ActionEvent event): void&lt;/p&gt;" style="verticalAlign=top;align=left;overflow=fill;fontSize=12;fontFamily=Helvetica;html=1;" parent="wKeTZpyMlNqquont4m5I-180" vertex="1">
          <mxGeometry y="50" width="220" height="162" as="geometry" />
        </mxCell>
        <mxCell id="wKeTZpyMlNqquont4m5I-151" value="" style="endArrow=none;html=1;entryX=0.5;entryY=0;entryDx=0;entryDy=0;" parent="wKeTZpyMlNqquont4m5I-180" target="jC_Wdxe36F_O-iLtIrg6-19" edge="1">
          <mxGeometry x="72" y="-90" width="50" height="50" as="geometry">
            <mxPoint x="110" y="30" as="sourcePoint" />
            <mxPoint x="90" y="40" as="targetPoint" />
          </mxGeometry>
        </mxCell>
        <mxCell id="wKeTZpyMlNqquont4m5I-152" value="" style="ellipse;fillColor=#ffffff;strokeColor=#000000;rotation=90;" parent="wKeTZpyMlNqquont4m5I-180" vertex="1">
          <mxGeometry x="95" width="30" height="30" as="geometry" />
        </mxCell>
        <mxCell id="wKeTZpyMlNqquont4m5I-191" value="Controller" style="text;html=1;align=center;verticalAlign=middle;resizable=0;points=[];autosize=1;" parent="wKeTZpyMlNqquont4m5I-261" vertex="1">
          <mxGeometry x="75" width="70" height="20" as="geometry" />
        </mxCell>
        <mxCell id="wKeTZpyMlNqquont4m5I-266" value="" style="group" parent="1" vertex="1" connectable="0">
          <mxGeometry x="1125" y="-1352" width="220" height="232" as="geometry" />
        </mxCell>
        <mxCell id="wKeTZpyMlNqquont4m5I-187" value="" style="group" parent="wKeTZpyMlNqquont4m5I-266" vertex="1" connectable="0">
          <mxGeometry y="30" width="220" height="202" as="geometry" />
        </mxCell>
        <mxCell id="jC_Wdxe36F_O-iLtIrg6-21" value="&lt;p style=&quot;margin: 0px ; margin-top: 4px ; text-align: center&quot;&gt;&lt;b&gt;ControllerRestock&lt;/b&gt;&lt;/p&gt;&lt;hr size=&quot;1&quot;&gt;&lt;p style=&quot;margin: 0px ; margin-left: 4px&quot;&gt;- rootPane: AnchorPane&lt;/p&gt;&lt;p style=&quot;margin: 0px ; margin-left: 4px&quot;&gt;- id: TextField&lt;/p&gt;&lt;p style=&quot;margin: 0px ; margin-left: 4px&quot;&gt;- quantity: TextField&lt;/p&gt;&lt;p style=&quot;margin: 0px ; margin-left: 4px&quot;&gt;- currentUser: User&lt;/p&gt;&lt;hr size=&quot;1&quot;&gt;&lt;p style=&quot;margin: 0px ; margin-left: 4px&quot;&gt;+ initData(User user): void&lt;/p&gt;&lt;p style=&quot;margin: 0px ; margin-left: 4px&quot;&gt;+ back(ActionEvent event): void&lt;/p&gt;&lt;p style=&quot;margin: 0px ; margin-left: 4px&quot;&gt;+ restockWine(ActionEvent event): void&lt;/p&gt;" style="verticalAlign=top;align=left;overflow=fill;fontSize=12;fontFamily=Helvetica;html=1;" parent="wKeTZpyMlNqquont4m5I-187" vertex="1">
          <mxGeometry y="50" width="220" height="152" as="geometry" />
        </mxCell>
        <mxCell id="wKeTZpyMlNqquont4m5I-155" value="" style="endArrow=none;html=1;entryX=0.5;entryY=0;entryDx=0;entryDy=0;" parent="wKeTZpyMlNqquont4m5I-187" target="jC_Wdxe36F_O-iLtIrg6-21" edge="1">
          <mxGeometry x="77" y="-110" width="50" height="50" as="geometry">
            <mxPoint x="110" y="30" as="sourcePoint" />
            <mxPoint x="110" y="40" as="targetPoint" />
          </mxGeometry>
        </mxCell>
        <mxCell id="wKeTZpyMlNqquont4m5I-156" value="" style="ellipse;fillColor=#ffffff;strokeColor=#000000;rotation=90;" parent="wKeTZpyMlNqquont4m5I-187" vertex="1">
          <mxGeometry x="95" width="30" height="30" as="geometry" />
        </mxCell>
        <mxCell id="wKeTZpyMlNqquont4m5I-263" value="Controller" style="text;html=1;align=center;verticalAlign=middle;resizable=0;points=[];autosize=1;" parent="wKeTZpyMlNqquont4m5I-266" vertex="1">
          <mxGeometry x="75" width="70" height="20" as="geometry" />
        </mxCell>
        <mxCell id="wKeTZpyMlNqquont4m5I-267" value="" style="group" parent="1" vertex="1" connectable="0">
          <mxGeometry x="1110" y="-1090" width="250" height="282" as="geometry" />
        </mxCell>
        <mxCell id="wKeTZpyMlNqquont4m5I-183" value="" style="group" parent="wKeTZpyMlNqquont4m5I-267" vertex="1" connectable="0">
          <mxGeometry y="30" width="250" height="252" as="geometry" />
        </mxCell>
        <mxCell id="jC_Wdxe36F_O-iLtIrg6-15" value="&lt;p style=&quot;margin: 0px ; margin-top: 4px ; text-align: center&quot;&gt;&lt;b&gt;ControllerHomepageEmployee&lt;/b&gt;&lt;/p&gt;&lt;hr size=&quot;1&quot;&gt;&lt;p style=&quot;margin: 0px ; margin-left: 4px&quot;&gt;- rootPane: AnchorPane&lt;/p&gt;&lt;p style=&quot;margin: 0px ; margin-left: 4px&quot;&gt;- treeView: TreeView&amp;lt;String&amp;gt;&lt;/p&gt;&lt;p style=&quot;margin: 0px ; margin-left: 4px&quot;&gt;- name: Text&lt;/p&gt;&lt;p style=&quot;margin: 0px ; margin-left: 4px&quot;&gt;- currentUser: User&lt;/p&gt;&lt;hr size=&quot;1&quot;&gt;&lt;p style=&quot;margin: 0px ; margin-left: 4px&quot;&gt;+ initData(User user): void&lt;/p&gt;&lt;p style=&quot;margin: 0px ; margin-left: 4px&quot;&gt;+ loadAddWine(ActionEvent event): void&lt;/p&gt;&lt;p style=&quot;margin: 0px ; margin-left: 4px&quot;&gt;+ loadShop(ActionEvent event): void&lt;/p&gt;&lt;p style=&quot;margin: 0px ; margin-left: 4px&quot;&gt;+ loadRestockWine(ActionEvent event): void&lt;/p&gt;&lt;p style=&quot;margin: 0px ; margin-left: 4px&quot;&gt;+ shipOrder(ActionEvent event): void&lt;/p&gt;&lt;p style=&quot;margin: 0px ; margin-left: 4px&quot;&gt;+ logout(ActionEvent event): void&lt;/p&gt;&lt;p style=&quot;margin: 0px ; margin-left: 4px&quot;&gt;+ displayOrders(): void&lt;/p&gt;&lt;p style=&quot;margin: 0px ; margin-left: 4px&quot;&gt;&lt;br&gt;&lt;/p&gt;" style="verticalAlign=top;align=left;overflow=fill;fontSize=12;fontFamily=Helvetica;html=1;" parent="wKeTZpyMlNqquont4m5I-183" vertex="1">
          <mxGeometry y="50" width="250" height="202" as="geometry" />
        </mxCell>
        <mxCell id="wKeTZpyMlNqquont4m5I-181" value="" style="endArrow=none;html=1;entryX=0.5;entryY=0;entryDx=0;entryDy=0;" parent="wKeTZpyMlNqquont4m5I-183" edge="1">
          <mxGeometry x="92" y="-100" width="50" height="50" as="geometry">
            <mxPoint x="125" y="30" as="sourcePoint" />
            <mxPoint x="125" y="50" as="targetPoint" />
          </mxGeometry>
        </mxCell>
        <mxCell id="wKeTZpyMlNqquont4m5I-182" value="" style="ellipse;fillColor=#ffffff;strokeColor=#000000;rotation=90;" parent="wKeTZpyMlNqquont4m5I-183" vertex="1">
          <mxGeometry x="110" width="30" height="30" as="geometry" />
        </mxCell>
        <mxCell id="wKeTZpyMlNqquont4m5I-262" value="Controller" style="text;html=1;align=center;verticalAlign=middle;resizable=0;points=[];autosize=1;" parent="wKeTZpyMlNqquont4m5I-267" vertex="1">
          <mxGeometry x="90" width="70" height="20" as="geometry" />
        </mxCell>
        <mxCell id="wKeTZpyMlNqquont4m5I-269" value="" style="group" parent="1" vertex="1" connectable="0">
          <mxGeometry x="670" y="-1410" width="275" height="78" as="geometry" />
        </mxCell>
        <mxCell id="wKeTZpyMlNqquont4m5I-122" value="" style="endArrow=none;html=1;exitX=1;exitY=0.5;exitDx=0;exitDy=0;exitPerimeter=0;entryX=0;entryY=0.5;entryDx=0;entryDy=0;" parent="wKeTZpyMlNqquont4m5I-269" edge="1">
          <mxGeometry width="50" height="50" as="geometry">
            <mxPoint x="90" y="39" as="sourcePoint" />
            <mxPoint x="115" y="39" as="targetPoint" />
          </mxGeometry>
        </mxCell>
        <mxCell id="wKeTZpyMlNqquont4m5I-130" value="" style="group" parent="wKeTZpyMlNqquont4m5I-269" vertex="1" connectable="0">
          <mxGeometry width="275" height="78" as="geometry" />
        </mxCell>
        <mxCell id="jC_Wdxe36F_O-iLtIrg6-5" value="App" style="swimlane;fontStyle=0;childLayout=stackLayout;horizontal=1;startSize=26;fillColor=none;horizontalStack=0;resizeParent=1;resizeParentMax=0;resizeLast=0;collapsible=1;marginBottom=0;" parent="wKeTZpyMlNqquont4m5I-130" vertex="1">
          <mxGeometry x="115" width="160" height="78" as="geometry">
            <mxRectangle x="60" y="-960" width="50" height="26" as="alternateBounds" />
          </mxGeometry>
        </mxCell>
        <mxCell id="jC_Wdxe36F_O-iLtIrg6-7" value="+ start(Stage stage): void" style="text;strokeColor=none;fillColor=none;align=left;verticalAlign=top;spacingLeft=4;spacingRight=4;overflow=hidden;rotatable=0;points=[[0,0.5],[1,0.5]];portConstraint=eastwest;" parent="jC_Wdxe36F_O-iLtIrg6-5" vertex="1">
          <mxGeometry y="26" width="160" height="26" as="geometry" />
        </mxCell>
        <mxCell id="jC_Wdxe36F_O-iLtIrg6-8" value="+ main(String[] args): void" style="text;strokeColor=none;fillColor=none;align=left;verticalAlign=top;spacingLeft=4;spacingRight=4;overflow=hidden;rotatable=0;points=[[0,0.5],[1,0.5]];portConstraint=eastwest;" parent="jC_Wdxe36F_O-iLtIrg6-5" vertex="1">
          <mxGeometry y="52" width="160" height="26" as="geometry" />
        </mxCell>
        <mxCell id="wKeTZpyMlNqquont4m5I-7" value="Application" style="text;html=1;align=center;verticalAlign=middle;resizable=0;points=[];autosize=1;" parent="wKeTZpyMlNqquont4m5I-130" vertex="1">
          <mxGeometry y="29" width="70" height="20" as="geometry" />
        </mxCell>
        <mxCell id="wKeTZpyMlNqquont4m5I-123" value="" style="ellipse;fillColor=#ffffff;strokeColor=#000000;" parent="wKeTZpyMlNqquont4m5I-130" vertex="1">
          <mxGeometry x="70" y="24" width="30" height="30" as="geometry" />
        </mxCell>
        <mxCell id="wKeTZpyMlNqquont4m5I-272" style="edgeStyle=orthogonalEdgeStyle;rounded=0;orthogonalLoop=1;jettySize=auto;html=1;exitX=1;exitY=0.5;exitDx=0;exitDy=0;entryX=0;entryY=0.5;entryDx=0;entryDy=0;" parent="1" source="jC_Wdxe36F_O-iLtIrg6-21" target="wKeTZpyMlNqquont4m5I-98" edge="1">
          <mxGeometry relative="1" as="geometry">
            <Array as="points">
              <mxPoint x="1470" y="-1196" />
              <mxPoint x="1470" y="-1239" />
            </Array>
          </mxGeometry>
        </mxCell>
        <mxCell id="wKeTZpyMlNqquont4m5I-273" style="edgeStyle=orthogonalEdgeStyle;rounded=0;orthogonalLoop=1;jettySize=auto;html=1;exitX=1;exitY=0.25;exitDx=0;exitDy=0;entryX=0;entryY=0.5;entryDx=0;entryDy=0;" parent="1" source="jC_Wdxe36F_O-iLtIrg6-15" target="wKeTZpyMlNqquont4m5I-100" edge="1">
          <mxGeometry relative="1" as="geometry">
            <Array as="points">
              <mxPoint x="1490" y="-959" />
              <mxPoint x="1490" y="-1187" />
            </Array>
          </mxGeometry>
        </mxCell>
        <mxCell id="wKeTZpyMlNqquont4m5I-63" value="Order" style="swimlane;fontStyle=0;align=center;verticalAlign=top;childLayout=stackLayout;horizontal=1;startSize=26;horizontalStack=0;resizeParent=1;resizeLast=0;collapsible=1;marginBottom=0;rounded=0;shadow=0;strokeWidth=1;" parent="1" vertex="1">
          <mxGeometry x="1610" y="-1100" width="170" height="240" as="geometry">
            <mxRectangle x="130" y="380" width="160" height="26" as="alternateBounds" />
          </mxGeometry>
        </mxCell>
        <mxCell id="wKeTZpyMlNqquont4m5I-64" value="-id: int" style="text;align=left;verticalAlign=top;spacingLeft=4;spacingRight=4;overflow=hidden;rotatable=0;points=[[0,0.5],[1,0.5]];portConstraint=eastwest;" parent="wKeTZpyMlNqquont4m5I-63" vertex="1">
          <mxGeometry y="26" width="170" height="26" as="geometry" />
        </mxCell>
        <mxCell id="wKeTZpyMlNqquont4m5I-65" value="-customer: String" style="text;align=left;verticalAlign=top;spacingLeft=4;spacingRight=4;overflow=hidden;rotatable=0;points=[[0,0.5],[1,0.5]];portConstraint=eastwest;rounded=0;shadow=0;html=0;" parent="wKeTZpyMlNqquont4m5I-63" vertex="1">
          <mxGeometry y="52" width="170" height="26" as="geometry" />
        </mxCell>
        <mxCell id="wKeTZpyMlNqquont4m5I-66" value="-shipped: Boolean" style="text;align=left;verticalAlign=top;spacingLeft=4;spacingRight=4;overflow=hidden;rotatable=0;points=[[0,0.5],[1,0.5]];portConstraint=eastwest;rounded=0;shadow=0;html=0;" parent="wKeTZpyMlNqquont4m5I-63" vertex="1">
          <mxGeometry y="78" width="170" height="26" as="geometry" />
        </mxCell>
        <mxCell id="wKeTZpyMlNqquont4m5I-67" value="-items: ArrayList&lt;Wine&gt;" style="text;align=left;verticalAlign=top;spacingLeft=4;spacingRight=4;overflow=hidden;rotatable=0;points=[[0,0.5],[1,0.5]];portConstraint=eastwest;rounded=0;shadow=0;html=0;" parent="wKeTZpyMlNqquont4m5I-63" vertex="1">
          <mxGeometry y="104" width="170" height="26" as="geometry" />
        </mxCell>
        <mxCell id="wKeTZpyMlNqquont4m5I-68" value="" style="endArrow=none;html=1;" parent="wKeTZpyMlNqquont4m5I-63" edge="1">
          <mxGeometry width="50" height="50" relative="1" as="geometry">
            <mxPoint x="-2" y="130" as="sourcePoint" />
            <mxPoint x="160" y="130" as="targetPoint" />
          </mxGeometry>
        </mxCell>
        <mxCell id="wKeTZpyMlNqquont4m5I-69" value="+getCustomer(): String" style="text;align=left;verticalAlign=top;spacingLeft=4;spacingRight=4;overflow=hidden;rotatable=0;points=[[0,0.5],[1,0.5]];portConstraint=eastwest;rounded=0;shadow=0;html=0;" parent="wKeTZpyMlNqquont4m5I-63" vertex="1">
          <mxGeometry y="130" width="170" height="26" as="geometry" />
        </mxCell>
        <mxCell id="wKeTZpyMlNqquont4m5I-70" value="+getId(): int" style="text;align=left;verticalAlign=top;spacingLeft=4;spacingRight=4;overflow=hidden;rotatable=0;points=[[0,0.5],[1,0.5]];portConstraint=eastwest;rounded=0;shadow=0;html=0;" parent="wKeTZpyMlNqquont4m5I-63" vertex="1">
          <mxGeometry y="156" width="170" height="26" as="geometry" />
        </mxCell>
        <mxCell id="wKeTZpyMlNqquont4m5I-71" value="+getStatus(): Boolean" style="text;align=left;verticalAlign=top;spacingLeft=4;spacingRight=4;overflow=hidden;rotatable=0;points=[[0,0.5],[1,0.5]];portConstraint=eastwest;rounded=0;shadow=0;html=0;" parent="wKeTZpyMlNqquont4m5I-63" vertex="1">
          <mxGeometry y="182" width="170" height="26" as="geometry" />
        </mxCell>
        <mxCell id="wKeTZpyMlNqquont4m5I-72" value="+getWines(): ArrayList&lt;Wine&gt;" style="text;align=left;verticalAlign=top;spacingLeft=4;spacingRight=4;overflow=hidden;rotatable=0;points=[[0,0.5],[1,0.5]];portConstraint=eastwest;rounded=0;shadow=0;html=0;" parent="wKeTZpyMlNqquont4m5I-63" vertex="1">
          <mxGeometry y="208" width="170" height="26" as="geometry" />
        </mxCell>
        <mxCell id="wKeTZpyMlNqquont4m5I-73" value="Wine" style="swimlane;fontStyle=0;align=center;verticalAlign=top;childLayout=stackLayout;horizontal=1;startSize=26;horizontalStack=0;resizeParent=1;resizeLast=0;collapsible=1;marginBottom=0;rounded=0;shadow=0;strokeWidth=1;" parent="1" vertex="1">
          <mxGeometry x="2025" y="-1470" width="160" height="390" as="geometry">
            <mxRectangle x="550" y="140" width="160" height="26" as="alternateBounds" />
          </mxGeometry>
        </mxCell>
        <mxCell id="wKeTZpyMlNqquont4m5I-74" value="-name: String" style="text;align=left;verticalAlign=top;spacingLeft=4;spacingRight=4;overflow=hidden;rotatable=0;points=[[0,0.5],[1,0.5]];portConstraint=eastwest;" parent="wKeTZpyMlNqquont4m5I-73" vertex="1">
          <mxGeometry y="26" width="160" height="26" as="geometry" />
        </mxCell>
        <mxCell id="wKeTZpyMlNqquont4m5I-75" value="-productId: int" style="text;align=left;verticalAlign=top;spacingLeft=4;spacingRight=4;overflow=hidden;rotatable=0;points=[[0,0.5],[1,0.5]];portConstraint=eastwest;rounded=0;shadow=0;html=0;" parent="wKeTZpyMlNqquont4m5I-73" vertex="1">
          <mxGeometry y="52" width="160" height="26" as="geometry" />
        </mxCell>
        <mxCell id="wKeTZpyMlNqquont4m5I-76" value="-producer: String" style="text;align=left;verticalAlign=top;spacingLeft=4;spacingRight=4;overflow=hidden;rotatable=0;points=[[0,0.5],[1,0.5]];portConstraint=eastwest;rounded=0;shadow=0;html=0;" parent="wKeTZpyMlNqquont4m5I-73" vertex="1">
          <mxGeometry y="78" width="160" height="26" as="geometry" />
        </mxCell>
        <mxCell id="wKeTZpyMlNqquont4m5I-77" value="-year: int" style="text;align=left;verticalAlign=top;spacingLeft=4;spacingRight=4;overflow=hidden;rotatable=0;points=[[0,0.5],[1,0.5]];portConstraint=eastwest;rounded=0;shadow=0;html=0;" parent="wKeTZpyMlNqquont4m5I-73" vertex="1">
          <mxGeometry y="104" width="160" height="26" as="geometry" />
        </mxCell>
        <mxCell id="wKeTZpyMlNqquont4m5I-78" value="-notes: String" style="text;align=left;verticalAlign=top;spacingLeft=4;spacingRight=4;overflow=hidden;rotatable=0;points=[[0,0.5],[1,0.5]];portConstraint=eastwest;rounded=0;shadow=0;html=0;" parent="wKeTZpyMlNqquont4m5I-73" vertex="1">
          <mxGeometry y="130" width="160" height="26" as="geometry" />
        </mxCell>
        <mxCell id="wKeTZpyMlNqquont4m5I-79" value="-quantity: int" style="text;align=left;verticalAlign=top;spacingLeft=4;spacingRight=4;overflow=hidden;rotatable=0;points=[[0,0.5],[1,0.5]];portConstraint=eastwest;rounded=0;shadow=0;html=0;" parent="wKeTZpyMlNqquont4m5I-73" vertex="1">
          <mxGeometry y="156" width="160" height="26" as="geometry" />
        </mxCell>
        <mxCell id="wKeTZpyMlNqquont4m5I-80" value="-grapes: String" style="text;align=left;verticalAlign=top;spacingLeft=4;spacingRight=4;overflow=hidden;rotatable=0;points=[[0,0.5],[1,0.5]];portConstraint=eastwest;rounded=0;shadow=0;html=0;" parent="wKeTZpyMlNqquont4m5I-73" vertex="1">
          <mxGeometry y="182" width="160" height="26" as="geometry" />
        </mxCell>
        <mxCell id="wKeTZpyMlNqquont4m5I-81" value="" style="endArrow=none;html=1;" parent="wKeTZpyMlNqquont4m5I-73" edge="1">
          <mxGeometry width="50" height="50" relative="1" as="geometry">
            <mxPoint x="1" y="211" as="sourcePoint" />
            <mxPoint x="159" y="211" as="targetPoint" />
          </mxGeometry>
        </mxCell>
        <mxCell id="wKeTZpyMlNqquont4m5I-82" value="+getName(): String" style="text;align=left;verticalAlign=top;spacingLeft=4;spacingRight=4;overflow=hidden;rotatable=0;points=[[0,0.5],[1,0.5]];portConstraint=eastwest;rounded=0;shadow=0;html=0;" parent="wKeTZpyMlNqquont4m5I-73" vertex="1">
          <mxGeometry y="208" width="160" height="26" as="geometry" />
        </mxCell>
        <mxCell id="wKeTZpyMlNqquont4m5I-83" value="+getProducer(): String" style="text;align=left;verticalAlign=top;spacingLeft=4;spacingRight=4;overflow=hidden;rotatable=0;points=[[0,0.5],[1,0.5]];portConstraint=eastwest;rounded=0;shadow=0;html=0;" parent="wKeTZpyMlNqquont4m5I-73" vertex="1">
          <mxGeometry y="234" width="160" height="26" as="geometry" />
        </mxCell>
        <mxCell id="wKeTZpyMlNqquont4m5I-84" value="+getYear(): int" style="text;align=left;verticalAlign=top;spacingLeft=4;spacingRight=4;overflow=hidden;rotatable=0;points=[[0,0.5],[1,0.5]];portConstraint=eastwest;rounded=0;shadow=0;html=0;" parent="wKeTZpyMlNqquont4m5I-73" vertex="1">
          <mxGeometry y="260" width="160" height="26" as="geometry" />
        </mxCell>
        <mxCell id="wKeTZpyMlNqquont4m5I-85" value="+getNotes(): String" style="text;align=left;verticalAlign=top;spacingLeft=4;spacingRight=4;overflow=hidden;rotatable=0;points=[[0,0.5],[1,0.5]];portConstraint=eastwest;rounded=0;shadow=0;html=0;" parent="wKeTZpyMlNqquont4m5I-73" vertex="1">
          <mxGeometry y="286" width="160" height="26" as="geometry" />
        </mxCell>
        <mxCell id="wKeTZpyMlNqquont4m5I-86" value="+getQuantity(): int" style="text;align=left;verticalAlign=top;spacingLeft=4;spacingRight=4;overflow=hidden;rotatable=0;points=[[0,0.5],[1,0.5]];portConstraint=eastwest;rounded=0;shadow=0;html=0;" parent="wKeTZpyMlNqquont4m5I-73" vertex="1">
          <mxGeometry y="312" width="160" height="26" as="geometry" />
        </mxCell>
        <mxCell id="wKeTZpyMlNqquont4m5I-87" value="+getGrapewines(): String" style="text;align=left;verticalAlign=top;spacingLeft=4;spacingRight=4;overflow=hidden;rotatable=0;points=[[0,0.5],[1,0.5]];portConstraint=eastwest;rounded=0;shadow=0;html=0;" parent="wKeTZpyMlNqquont4m5I-73" vertex="1">
          <mxGeometry y="338" width="160" height="26" as="geometry" />
        </mxCell>
        <mxCell id="wKeTZpyMlNqquont4m5I-88" value="+getProductId(): int" style="text;align=left;verticalAlign=top;spacingLeft=4;spacingRight=4;overflow=hidden;rotatable=0;points=[[0,0.5],[1,0.5]];portConstraint=eastwest;rounded=0;shadow=0;html=0;" parent="wKeTZpyMlNqquont4m5I-73" vertex="1">
          <mxGeometry y="364" width="160" height="26" as="geometry" />
        </mxCell>
        <mxCell id="wKeTZpyMlNqquont4m5I-89" value="User" style="swimlane;fontStyle=0;align=center;verticalAlign=top;childLayout=stackLayout;horizontal=1;startSize=26;horizontalStack=0;resizeParent=1;resizeLast=0;collapsible=1;marginBottom=0;rounded=0;shadow=0;strokeWidth=1;" parent="1" vertex="1">
          <mxGeometry x="1615" y="-1460" width="160" height="290" as="geometry">
            <mxRectangle x="550" y="140" width="160" height="26" as="alternateBounds" />
          </mxGeometry>
        </mxCell>
        <mxCell id="wKeTZpyMlNqquont4m5I-90" value="-name: String" style="text;align=left;verticalAlign=top;spacingLeft=4;spacingRight=4;overflow=hidden;rotatable=0;points=[[0,0.5],[1,0.5]];portConstraint=eastwest;" parent="wKeTZpyMlNqquont4m5I-89" vertex="1">
          <mxGeometry y="26" width="160" height="26" as="geometry" />
        </mxCell>
        <mxCell id="wKeTZpyMlNqquont4m5I-91" value="-surname: String" style="text;align=left;verticalAlign=top;spacingLeft=4;spacingRight=4;overflow=hidden;rotatable=0;points=[[0,0.5],[1,0.5]];portConstraint=eastwest;rounded=0;shadow=0;html=0;" parent="wKeTZpyMlNqquont4m5I-89" vertex="1">
          <mxGeometry y="52" width="160" height="26" as="geometry" />
        </mxCell>
        <mxCell id="wKeTZpyMlNqquont4m5I-92" value="-email: String" style="text;align=left;verticalAlign=top;spacingLeft=4;spacingRight=4;overflow=hidden;rotatable=0;points=[[0,0.5],[1,0.5]];portConstraint=eastwest;rounded=0;shadow=0;html=0;" parent="wKeTZpyMlNqquont4m5I-89" vertex="1">
          <mxGeometry y="78" width="160" height="26" as="geometry" />
        </mxCell>
        <mxCell id="wKeTZpyMlNqquont4m5I-93" value="-password: String" style="text;align=left;verticalAlign=top;spacingLeft=4;spacingRight=4;overflow=hidden;rotatable=0;points=[[0,0.5],[1,0.5]];portConstraint=eastwest;rounded=0;shadow=0;html=0;" parent="wKeTZpyMlNqquont4m5I-89" vertex="1">
          <mxGeometry y="104" width="160" height="26" as="geometry" />
        </mxCell>
        <mxCell id="wKeTZpyMlNqquont4m5I-94" value="" style="endArrow=none;html=1;entryX=0.994;entryY=0;entryDx=0;entryDy=0;entryPerimeter=0;" parent="wKeTZpyMlNqquont4m5I-89" target="wKeTZpyMlNqquont4m5I-96" edge="1">
          <mxGeometry width="50" height="50" relative="1" as="geometry">
            <mxPoint y="156" as="sourcePoint" />
            <mxPoint x="50" y="106" as="targetPoint" />
          </mxGeometry>
        </mxCell>
        <mxCell id="wKeTZpyMlNqquont4m5I-95" value="-permission: int" style="text;align=left;verticalAlign=top;spacingLeft=4;spacingRight=4;overflow=hidden;rotatable=0;points=[[0,0.5],[1,0.5]];portConstraint=eastwest;rounded=0;shadow=0;html=0;" parent="wKeTZpyMlNqquont4m5I-89" vertex="1">
          <mxGeometry y="130" width="160" height="26" as="geometry" />
        </mxCell>
        <mxCell id="wKeTZpyMlNqquont4m5I-96" value="+getName(): String" style="text;align=left;verticalAlign=top;spacingLeft=4;spacingRight=4;overflow=hidden;rotatable=0;points=[[0,0.5],[1,0.5]];portConstraint=eastwest;rounded=0;shadow=0;html=0;" parent="wKeTZpyMlNqquont4m5I-89" vertex="1">
          <mxGeometry y="156" width="160" height="26" as="geometry" />
        </mxCell>
        <mxCell id="wKeTZpyMlNqquont4m5I-97" value="+getSurname(): String" style="text;align=left;verticalAlign=top;spacingLeft=4;spacingRight=4;overflow=hidden;rotatable=0;points=[[0,0.5],[1,0.5]];portConstraint=eastwest;rounded=0;shadow=0;html=0;" parent="wKeTZpyMlNqquont4m5I-89" vertex="1">
          <mxGeometry y="182" width="160" height="26" as="geometry" />
        </mxCell>
        <mxCell id="wKeTZpyMlNqquont4m5I-98" value="+getEmail(): String" style="text;align=left;verticalAlign=top;spacingLeft=4;spacingRight=4;overflow=hidden;rotatable=0;points=[[0,0.5],[1,0.5]];portConstraint=eastwest;rounded=0;shadow=0;html=0;" parent="wKeTZpyMlNqquont4m5I-89" vertex="1">
          <mxGeometry y="208" width="160" height="26" as="geometry" />
        </mxCell>
        <mxCell id="wKeTZpyMlNqquont4m5I-99" value="+getPermission(): int" style="text;align=left;verticalAlign=top;spacingLeft=4;spacingRight=4;overflow=hidden;rotatable=0;points=[[0,0.5],[1,0.5]];portConstraint=eastwest;rounded=0;shadow=0;html=0;" parent="wKeTZpyMlNqquont4m5I-89" vertex="1">
          <mxGeometry y="234" width="160" height="26" as="geometry" />
        </mxCell>
        <mxCell id="wKeTZpyMlNqquont4m5I-100" value="+getPassword(): String" style="text;align=left;verticalAlign=top;spacingLeft=4;spacingRight=4;overflow=hidden;rotatable=0;points=[[0,0.5],[1,0.5]];portConstraint=eastwest;rounded=0;shadow=0;html=0;" parent="wKeTZpyMlNqquont4m5I-89" vertex="1">
          <mxGeometry y="260" width="160" height="26" as="geometry" />
        </mxCell>
        <mxCell id="wKeTZpyMlNqquont4m5I-101" value="" style="endArrow=none;html=1;exitX=1;exitY=0.5;exitDx=0;exitDy=0;" parent="1" source="wKeTZpyMlNqquont4m5I-95" edge="1">
          <mxGeometry x="1610" y="-1470" width="50" height="50" as="geometry">
            <mxPoint x="1785" y="-1290" as="sourcePoint" />
            <mxPoint x="2025" y="-1316" as="targetPoint" />
          </mxGeometry>
        </mxCell>
        <mxCell id="wKeTZpyMlNqquont4m5I-102" value="0,n" style="text;html=1;strokeColor=none;fillColor=none;align=center;verticalAlign=middle;whiteSpace=wrap;rounded=0;" parent="1" vertex="1">
          <mxGeometry x="2005" y="-1340" width="20" height="20" as="geometry" />
        </mxCell>
        <mxCell id="wKeTZpyMlNqquont4m5I-103" value="0,n" style="text;html=1;strokeColor=none;fillColor=none;align=center;verticalAlign=middle;whiteSpace=wrap;rounded=0;" parent="1" vertex="1">
          <mxGeometry x="1775" y="-1340" width="20" height="20" as="geometry" />
        </mxCell>
        <mxCell id="wKeTZpyMlNqquont4m5I-104" value="buy" style="text;html=1;strokeColor=none;fillColor=none;align=center;verticalAlign=middle;whiteSpace=wrap;rounded=0;" parent="1" vertex="1">
          <mxGeometry x="1875" y="-1340" width="40" height="20" as="geometry" />
        </mxCell>
        <mxCell id="wKeTZpyMlNqquont4m5I-105" value="" style="endArrow=none;html=1;entryX=0.5;entryY=1;entryDx=0;entryDy=0;exitX=0.5;exitY=0;exitDx=0;exitDy=0;" parent="1" source="wKeTZpyMlNqquont4m5I-63" target="wKeTZpyMlNqquont4m5I-89" edge="1">
          <mxGeometry x="1610" y="-1470" width="50" height="50" as="geometry">
            <mxPoint x="1925" y="-1050" as="sourcePoint" />
            <mxPoint x="1975" y="-1100" as="targetPoint" />
          </mxGeometry>
        </mxCell>
        <mxCell id="wKeTZpyMlNqquont4m5I-106" value="place" style="text;html=1;strokeColor=none;fillColor=none;align=center;verticalAlign=middle;whiteSpace=wrap;rounded=0;" parent="1" vertex="1">
          <mxGeometry x="1695" y="-1150" width="40" height="20" as="geometry" />
        </mxCell>
        <mxCell id="wKeTZpyMlNqquont4m5I-107" value="0,n" style="text;html=1;strokeColor=none;fillColor=none;align=center;verticalAlign=middle;whiteSpace=wrap;rounded=0;" parent="1" vertex="1">
          <mxGeometry x="1695" y="-1120" width="20" height="20" as="geometry" />
        </mxCell>
        <mxCell id="wKeTZpyMlNqquont4m5I-108" value="1" style="text;html=1;strokeColor=none;fillColor=none;align=center;verticalAlign=middle;whiteSpace=wrap;rounded=0;" parent="1" vertex="1">
          <mxGeometry x="1695" y="-1170" width="10" height="20" as="geometry" />
        </mxCell>
        <mxCell id="wKeTZpyMlNqquont4m5I-109" value="0,n" style="text;html=1;strokeColor=none;fillColor=none;align=center;verticalAlign=middle;whiteSpace=wrap;rounded=0;" parent="1" vertex="1">
          <mxGeometry x="2005" y="-1110" width="20" height="20" as="geometry" />
        </mxCell>
        <mxCell id="wKeTZpyMlNqquont4m5I-110" value="" style="endArrow=classic;html=1;exitX=1;exitY=1;exitDx=0;exitDy=0;entryX=1;entryY=0.043;entryDx=0;entryDy=0;entryPerimeter=0;" parent="1" source="wKeTZpyMlNqquont4m5I-109" target="wKeTZpyMlNqquont4m5I-63" edge="1">
          <mxGeometry x="1610" y="-1470" width="50" height="50" as="geometry">
            <mxPoint x="1935" y="-1160" as="sourcePoint" />
            <mxPoint x="1985" y="-1210" as="targetPoint" />
          </mxGeometry>
        </mxCell>
        <mxCell id="wKeTZpyMlNqquont4m5I-111" value="be part of" style="text;html=1;strokeColor=none;fillColor=none;align=center;verticalAlign=middle;whiteSpace=wrap;rounded=0;" parent="1" vertex="1">
          <mxGeometry x="1875" y="-1110" width="60" height="20" as="geometry" />
        </mxCell>
        <mxCell id="wKeTZpyMlNqquont4m5I-112" value="" style="endArrow=classic;html=1;exitX=1.007;exitY=0.081;exitDx=0;exitDy=0;exitPerimeter=0;entryX=0;entryY=0.978;entryDx=0;entryDy=0;entryPerimeter=0;" parent="1" source="wKeTZpyMlNqquont4m5I-63" target="wKeTZpyMlNqquont4m5I-88" edge="1">
          <mxGeometry x="1610" y="-1470" width="50" height="50" as="geometry">
            <mxPoint x="1935" y="-1150" as="sourcePoint" />
            <mxPoint x="1985" y="-1200" as="targetPoint" />
          </mxGeometry>
        </mxCell>
        <mxCell id="wKeTZpyMlNqquont4m5I-113" value="1,n" style="text;html=1;strokeColor=none;fillColor=none;align=center;verticalAlign=middle;whiteSpace=wrap;rounded=0;" parent="1" vertex="1">
          <mxGeometry x="1780" y="-1080" width="20" height="20" as="geometry" />
        </mxCell>
        <mxCell id="wKeTZpyMlNqquont4m5I-114" value="be made of" style="text;html=1;strokeColor=none;fillColor=none;align=center;verticalAlign=middle;whiteSpace=wrap;rounded=0;" parent="1" vertex="1">
          <mxGeometry x="1875" y="-1080" width="70" height="20" as="geometry" />
        </mxCell>
        <mxCell id="wKeTZpyMlNqquont4m5I-265" value="" style="group" parent="1" vertex="1" connectable="0">
          <mxGeometry x="1775" y="-840" width="260" height="312" as="geometry" />
        </mxCell>
        <mxCell id="jC_Wdxe36F_O-iLtIrg6-12" value="&lt;p style=&quot;margin: 0px ; margin-top: 4px ; text-align: center&quot;&gt;&lt;b&gt;ControllerCart&lt;/b&gt;&lt;/p&gt;&lt;hr size=&quot;1&quot;&gt;&lt;p style=&quot;margin: 0px ; margin-left: 4px&quot;&gt;-&lt;span&gt;&amp;nbsp;rootPane: AnchorPane&lt;/span&gt;&lt;/p&gt;&lt;p style=&quot;margin: 0px 0px 0px 4px&quot;&gt;- tableView: TableView&amp;lt;Wine&amp;gt;&lt;/p&gt;&lt;p style=&quot;margin: 0px 0px 0px 4px&quot;&gt;- nameColumn: TableColumn&amp;lt;Wine, String&amp;gt;&lt;/p&gt;&lt;p style=&quot;margin: 0px 0px 0px 4px&quot;&gt;- yearColumn: TableColumn&amp;lt;Wine, Integer&amp;gt;&lt;/p&gt;&lt;p style=&quot;margin: 0px 0px 0px 4px&quot;&gt;- producerColumn: TableColumn&amp;lt;Wine, String&amp;gt;&lt;/p&gt;&lt;p style=&quot;margin: 0px 0px 0px 4px&quot;&gt;- quantityColumn: TableColumn&amp;lt;Wine, Integer&amp;gt;&lt;/p&gt;&lt;p style=&quot;margin: 0px ; margin-left: 4px&quot;&gt;- currentUser: User&lt;/p&gt;&lt;hr size=&quot;1&quot;&gt;&lt;p style=&quot;margin: 0px ; margin-left: 4px&quot;&gt;+ initData(User user): void&lt;/p&gt;&lt;p style=&quot;margin: 0px ; margin-left: 4px&quot;&gt;+ addToTable(ArrayList&amp;lt;Wine&amp;gt; wines): void&lt;/p&gt;&lt;p style=&quot;margin: 0px ; margin-left: 4px&quot;&gt;+ back(ActionEvent event): void&lt;/p&gt;&lt;p style=&quot;margin: 0px ; margin-left: 4px&quot;&gt;+ buy(ActionEvent event): void&lt;/p&gt;&lt;p style=&quot;margin: 0px ; margin-left: 4px&quot;&gt;+ displayCart(ActionEvent event): void&lt;/p&gt;&lt;p style=&quot;margin: 0px ; margin-left: 4px&quot;&gt;+ removeFromCart(ActionEvent event): void&lt;/p&gt;" style="verticalAlign=top;align=left;overflow=fill;fontSize=12;fontFamily=Helvetica;html=1;" parent="wKeTZpyMlNqquont4m5I-265" vertex="1">
          <mxGeometry y="80" width="260" height="232" as="geometry" />
        </mxCell>
        <mxCell id="wKeTZpyMlNqquont4m5I-188" value="" style="endArrow=none;html=1;entryX=0.5;entryY=0;entryDx=0;entryDy=0;" parent="wKeTZpyMlNqquont4m5I-265" target="jC_Wdxe36F_O-iLtIrg6-12" edge="1">
          <mxGeometry x="-1273.3400000000001" y="950" width="50" height="50" as="geometry">
            <mxPoint x="130" y="60" as="sourcePoint" />
            <mxPoint x="129.66000000000008" y="60" as="targetPoint" />
          </mxGeometry>
        </mxCell>
        <mxCell id="wKeTZpyMlNqquont4m5I-189" value="" style="ellipse;fillColor=#ffffff;strokeColor=#000000;rotation=90;" parent="wKeTZpyMlNqquont4m5I-265" vertex="1">
          <mxGeometry x="115" y="30" width="30" height="30" as="geometry" />
        </mxCell>
        <mxCell id="wKeTZpyMlNqquont4m5I-264" value="Controller" style="text;html=1;align=center;verticalAlign=middle;resizable=0;points=[];autosize=1;" parent="wKeTZpyMlNqquont4m5I-265" vertex="1">
          <mxGeometry x="95" width="70" height="20" as="geometry" />
        </mxCell>
        <mxCell id="ZOYg5p0cv3gOobGNT6kV-1" style="rounded=0;orthogonalLoop=1;jettySize=auto;html=1;exitX=0.25;exitY=0;exitDx=0;exitDy=0;entryX=0.75;entryY=1;entryDx=0;entryDy=0;edgeStyle=orthogonalEdgeStyle;" edge="1" parent="1" source="jC_Wdxe36F_O-iLtIrg6-12" target="wKeTZpyMlNqquont4m5I-63">
          <mxGeometry relative="1" as="geometry" />
        </mxCell>
        <mxCell id="ZOYg5p0cv3gOobGNT6kV-2" style="edgeStyle=orthogonalEdgeStyle;rounded=0;orthogonalLoop=1;jettySize=auto;html=1;exitX=0.25;exitY=0;exitDx=0;exitDy=0;entryX=1;entryY=0.5;entryDx=0;entryDy=0;" edge="1" parent="1" source="jC_Wdxe36F_O-iLtIrg6-12" target="wKeTZpyMlNqquont4m5I-98">
          <mxGeometry relative="1" as="geometry" />
        </mxCell>
        <mxCell id="ZOYg5p0cv3gOobGNT6kV-3" style="edgeStyle=orthogonalEdgeStyle;rounded=0;orthogonalLoop=1;jettySize=auto;html=1;exitX=0.25;exitY=0;exitDx=0;exitDy=0;entryX=0;entryY=0.5;entryDx=0;entryDy=0;jumpStyle=arc;jumpSize=15;" edge="1" parent="1" source="jC_Wdxe36F_O-iLtIrg6-12" target="wKeTZpyMlNqquont4m5I-83">
          <mxGeometry relative="1" as="geometry" />
        </mxCell>
        <mxCell id="ZOYg5p0cv3gOobGNT6kV-4" style="edgeStyle=orthogonalEdgeStyle;rounded=0;orthogonalLoop=1;jettySize=auto;html=1;exitX=0.25;exitY=0;exitDx=0;exitDy=0;entryX=1;entryY=0.5;entryDx=0;entryDy=0;jumpStyle=arc;jumpSize=15;" edge="1" parent="1" source="wKeTZpyMlNqquont4m5I-213" target="wKeTZpyMlNqquont4m5I-71">
          <mxGeometry relative="1" as="geometry">
            <Array as="points">
              <mxPoint x="2132" y="-905" />
            </Array>
          </mxGeometry>
        </mxCell>
        <mxCell id="ZOYg5p0cv3gOobGNT6kV-6" style="edgeStyle=orthogonalEdgeStyle;rounded=0;orthogonalLoop=1;jettySize=auto;html=1;exitX=0.25;exitY=0;exitDx=0;exitDy=0;entryX=0.75;entryY=1;entryDx=0;entryDy=0;" edge="1" parent="1" source="wKeTZpyMlNqquont4m5I-213" target="wKeTZpyMlNqquont4m5I-73">
          <mxGeometry relative="1" as="geometry">
            <Array as="points">
              <mxPoint x="2132" y="-758" />
              <mxPoint x="2132" y="-1000" />
              <mxPoint x="2145" y="-1000" />
            </Array>
          </mxGeometry>
        </mxCell>
        <mxCell id="ZOYg5p0cv3gOobGNT6kV-8" style="edgeStyle=orthogonalEdgeStyle;rounded=0;orthogonalLoop=1;jettySize=auto;html=1;exitX=0.25;exitY=0;exitDx=0;exitDy=0;entryX=1;entryY=0.5;entryDx=0;entryDy=0;jumpStyle=arc;jumpSize=15;" edge="1" parent="1" source="wKeTZpyMlNqquont4m5I-213" target="wKeTZpyMlNqquont4m5I-100">
          <mxGeometry relative="1" as="geometry">
            <Array as="points">
              <mxPoint x="2132" y="-970" />
              <mxPoint x="1960" y="-970" />
              <mxPoint x="1960" y="-1187" />
            </Array>
          </mxGeometry>
        </mxCell>
        <mxCell id="ZOYg5p0cv3gOobGNT6kV-9" style="edgeStyle=orthogonalEdgeStyle;rounded=0;orthogonalLoop=1;jettySize=auto;html=1;exitX=1;exitY=0.25;exitDx=0;exitDy=0;entryX=0.25;entryY=0;entryDx=0;entryDy=0;jumpStyle=arc;jumpSize=15;" edge="1" parent="1" source="jC_Wdxe36F_O-iLtIrg6-15" target="wKeTZpyMlNqquont4m5I-73">
          <mxGeometry relative="1" as="geometry">
            <Array as="points">
              <mxPoint x="1490" y="-959" />
              <mxPoint x="1490" y="-1490" />
              <mxPoint x="2065" y="-1490" />
            </Array>
          </mxGeometry>
        </mxCell>
        <mxCell id="ZOYg5p0cv3gOobGNT6kV-10" style="edgeStyle=orthogonalEdgeStyle;rounded=0;jumpStyle=arc;jumpSize=15;orthogonalLoop=1;jettySize=auto;html=1;exitX=1;exitY=0.25;exitDx=0;exitDy=0;entryX=0.25;entryY=0;entryDx=0;entryDy=0;" edge="1" parent="1" source="jC_Wdxe36F_O-iLtIrg6-19" target="wKeTZpyMlNqquont4m5I-89">
          <mxGeometry relative="1" as="geometry" />
        </mxCell>
        <mxCell id="ZOYg5p0cv3gOobGNT6kV-11" style="edgeStyle=orthogonalEdgeStyle;rounded=0;jumpStyle=arc;jumpSize=15;orthogonalLoop=1;jettySize=auto;html=1;exitX=0;exitY=0.25;exitDx=0;exitDy=0;entryX=0.75;entryY=0;entryDx=0;entryDy=0;" edge="1" parent="1" source="jC_Wdxe36F_O-iLtIrg6-20" target="wKeTZpyMlNqquont4m5I-89">
          <mxGeometry relative="1" as="geometry">
            <Array as="points">
              <mxPoint x="2260" y="-957" />
              <mxPoint x="2260" y="-1530" />
              <mxPoint x="1735" y="-1530" />
            </Array>
          </mxGeometry>
        </mxCell>
        <mxCell id="ZOYg5p0cv3gOobGNT6kV-12" style="edgeStyle=orthogonalEdgeStyle;rounded=0;jumpStyle=arc;jumpSize=15;orthogonalLoop=1;jettySize=auto;html=1;exitX=0.25;exitY=1;exitDx=0;exitDy=0;entryX=0.5;entryY=0;entryDx=0;entryDy=0;" edge="1" parent="1" source="wKeTZpyMlNqquont4m5I-249" target="wKeTZpyMlNqquont4m5I-89">
          <mxGeometry relative="1" as="geometry">
            <Array as="points">
              <mxPoint x="1810" y="-1570" />
              <mxPoint x="1695" y="-1570" />
            </Array>
          </mxGeometry>
        </mxCell>
        <mxCell id="ZOYg5p0cv3gOobGNT6kV-13" style="edgeStyle=orthogonalEdgeStyle;rounded=0;jumpStyle=arc;jumpSize=15;orthogonalLoop=1;jettySize=auto;html=1;exitX=0.5;exitY=1;exitDx=0;exitDy=0;entryX=1;entryY=0.5;entryDx=0;entryDy=0;" edge="1" parent="1" source="wKeTZpyMlNqquont4m5I-249" target="wKeTZpyMlNqquont4m5I-65">
          <mxGeometry relative="1" as="geometry" />
        </mxCell>
        <mxCell id="ZOYg5p0cv3gOobGNT6kV-14" style="edgeStyle=orthogonalEdgeStyle;rounded=0;jumpStyle=arc;jumpSize=15;orthogonalLoop=1;jettySize=auto;html=1;exitX=0.75;exitY=1;exitDx=0;exitDy=0;entryX=0.75;entryY=0;entryDx=0;entryDy=0;" edge="1" parent="1" source="wKeTZpyMlNqquont4m5I-249" target="wKeTZpyMlNqquont4m5I-73">
          <mxGeometry relative="1" as="geometry">
            <Array as="points">
              <mxPoint x="1950" y="-1570" />
              <mxPoint x="2145" y="-1570" />
            </Array>
          </mxGeometry>
        </mxCell>
        <mxCell id="ZOYg5p0cv3gOobGNT6kV-15" style="edgeStyle=orthogonalEdgeStyle;rounded=0;jumpStyle=arc;jumpSize=15;orthogonalLoop=1;jettySize=auto;html=1;exitX=0.5;exitY=1;exitDx=0;exitDy=0;entryX=0.138;entryY=-0.003;entryDx=0;entryDy=0;entryPerimeter=0;" edge="1" parent="1" source="jC_Wdxe36F_O-iLtIrg6-13" target="wKeTZpyMlNqquont4m5I-89">
          <mxGeometry relative="1" as="geometry">
            <Array as="points">
              <mxPoint x="1550" y="-1550" />
              <mxPoint x="1637" y="-1550" />
            </Array>
          </mxGeometry>
        </mxCell>
        <mxCell id="ZOYg5p0cv3gOobGNT6kV-16" style="edgeStyle=orthogonalEdgeStyle;rounded=0;jumpStyle=arc;jumpSize=15;orthogonalLoop=1;jettySize=auto;html=1;exitX=0.75;exitY=1;exitDx=0;exitDy=0;entryX=0.5;entryY=0;entryDx=0;entryDy=0;startArrow=none;startFill=0;noJump=0;comic=0;" edge="1" parent="1" source="jC_Wdxe36F_O-iLtIrg6-13" target="wKeTZpyMlNqquont4m5I-73">
          <mxGeometry relative="1" as="geometry">
            <Array as="points">
              <mxPoint x="1600" y="-1550" />
              <mxPoint x="2105" y="-1550" />
            </Array>
          </mxGeometry>
        </mxCell>
        <mxCell id="ZOYg5p0cv3gOobGNT6kV-17" style="edgeStyle=orthogonalEdgeStyle;rounded=0;comic=0;jumpStyle=arc;jumpSize=15;orthogonalLoop=1;jettySize=auto;html=1;exitX=0.75;exitY=0;exitDx=0;exitDy=0;entryX=0;entryY=0.5;entryDx=0;entryDy=0;startArrow=none;startFill=0;" edge="1" parent="1" source="jC_Wdxe36F_O-iLtIrg6-10" target="wKeTZpyMlNqquont4m5I-92">
          <mxGeometry relative="1" as="geometry" />
        </mxCell>
      </root>
    </mxGraphModel>
  </diagram>
</mxfile>
